PathFileType  4	(X/Y/Z) C:\Users\antoi\Documents\MyRepositories\mobilecap\ResultsAnalysis
DataRate	CameraRate	NumFrames	NumMarkers	Units	OrigDataRate	OrigDataStartFrame	OrigNumFrames
100.0	100.0	4	51	mm	100.0	1	184
Frame#	Time	r_knee			r_shank_antsup			r_ankle			r_calc			r_5meta			r_toe			L_knee			L_shank_antsup			L_ankle			L_calc			L_5meta			L_toe			r_sh2			r_sh3			r_sh4			L_sh2			L_sh3			r_thigh1			r_thigh2			r_thigh3			r_thigh4			r_thigh5			L_thigh1			L_thigh2			L_thigh3			L_thigh4			r.ASIS			r.PSIS			L.ASIS			L.PSIS			C7			R_Shoulder			L_Shoulder			R_Sternum			L_Sternum			R_humerus			R_elbow_med			R_elbow_lat			R_forearm			R_wrist_radius			R_wrist_ulna			L_humerus			L_elbow_med			L_elbow_lat			L_forearm			L_wrist_radius			L_wrist_ulna			R_HJC			L_HJC			R_HJC_reg			L_HJC_reg			
		X1	Y1	Z1	X2	Y2	Z2	X3	Y3	Z3	X4	Y4	Z4	X5	Y5	Z5	X6	Y6	Z6	X7	Y7	Z7	X8	Y8	Z8	X9	Y9	Z9	X10	Y10	Z10	X11	Y11	Z11	X12	Y12	Z12	X13	Y13	Z13	X14	Y14	Z14	X15	Y15	Z15	X16	Y16	Z16	X17	Y17	Z17	X18	Y18	Z18	X19	Y19	Z19	X20	Y20	Z20	X21	Y21	Z21	X22	Y22	Z22	X23	Y23	Z23	X24	Y24	Z24	X25	Y25	Z25	X26	Y26	Z26	X27	Y27	Z27	X28	Y28	Z28	X29	Y29	Z29	X30	Y30	Z30	X31	Y31	Z31	X32	Y32	Z32	X33	Y33	Z33	X34	Y34	Z34	X35	Y35	Z35	X36	Y36	Z36	X37	Y37	Z37	X38	Y38	Z38	X39	Y39	Z39	X40	Y40	Z40	X41	Y41	Z41	X42	Y42	Z42	X43	Y43	Z43	X44	Y44	Z44	X45	Y45	Z45	X46	Y46	Z46	X47	Y47	Z47	X48	Y48	Z48	X49	Y49	Z49	X50	Y50	Z50	X51	Y51	Z51	

1	0.00000000	-57.58229	585.35088	-106.22205	16.66630	456.40223	-115.14919	97.08306	96.40998	-136.28013	55.39766	59.22998	-202.13977	243.70546	94.97590	-104.42010	267.28344	140.19176	-151.64451	-451.60244	585.28075	-380.36542	-488.30766	384.63454	-341.18787	-702.70215	149.44515	-318.84317	-767.36760	137.76940	-251.40790	-593.96816	35.98292	-353.46089	-546.63227	53.36670	-296.44461	55.83525	350.75408	-126.08880	-42.74073	428.21378	-72.81334	-6.11663	321.04239	-77.89732	-548.62061	414.78079	-399.66182	-609.59652	317.15644	-372.56657	-137.04218	859.45826	-66.43057	-81.54419	765.01297	-77.20379	-123.41330	713.33885	-68.52579	-235.86165	808.18290	-86.44718	-178.22094	705.80188	-87.20667	-283.79829	845.94965	-413.37230	-328.75739	720.12037	-401.53056	-386.74738	885.38651	-421.62889	-433.87668	756.53789	-411.76920	-171.60012	1120.05067	-111.89437	-366.48210	1153.05441	-178.67169	-203.05059	1113.85525	-391.60597	-375.52270	1162.96991	-269.24081	-288.77220	1638.81073	-273.29653	-225.44845	1595.79921	-94.32743	-226.43011	1590.15190	-445.71658	-150.37607	1540.43686	-239.45252	-152.35434	1539.81915	-296.82825	-307.58338	1344.52284	-10.60936	-426.29976	1256.68500	-41.31288	-409.32617	1280.56467	28.79007	-331.64041	1077.32875	58.41523	-302.80986	985.71126	59.48892	-334.13728	985.92924	83.49603	-229.40453	1291.46757	-498.18967	-330.87909	1221.42036	-463.44632	-295.32762	1214.73880	-531.72094	-215.76423	1023.08164	-539.11711	-188.74135	947.91259	-524.73337	-212.19446	949.06247	-551.61733	-256.15181	1026.24921	-141.54236	-286.27624	1029.08982	-336.68684	-245.05148	1018.91899	-155.41825	-263.39930	1039.04305	-339.22959	
2	0.01000000	-46.76972	584.37320	-106.50454	27.08007	455.03730	-116.28974	103.07399	94.55252	-136.93779	59.35583	60.28021	-202.70605	249.00651	87.76178	-106.28290	274.00185	131.83699	-153.56670	-439.46461	585.05588	-380.49070	-481.87543	385.06641	-339.89938	-698.48837	153.80661	-319.07260	-763.11048	144.17934	-251.38680	-593.52706	36.51707	-353.28210	-545.57112	53.20648	-296.26715	65.48177	349.05147	-127.30848	-32.59130	427.23732	-73.96230	3.17492	319.77496	-79.31114	-539.43625	416.07095	-399.86899	-603.32045	320.60842	-372.76958	-123.20966	859.07006	-66.64896	-68.59513	764.02254	-77.54808	-111.15008	712.84531	-68.85417	-222.71141	808.63315	-86.46967	-166.04425	705.72179	-87.34394	-271.82071	845.69455	-414.02202	-316.53583	719.75443	-402.43760	-374.78166	885.17871	-421.34106	-421.69507	756.26837	-411.44160	-157.04852	1119.13307	-112.49079	-352.51659	1152.70334	-177.47695	-190.63536	1113.55892	-391.98001	-362.14065	1162.35499	-268.14030	-276.40899	1639.09827	-268.80470	-212.38583	1593.86220	-90.69138	-214.73085	1591.71649	-441.99205	-139.09139	1539.96936	-236.32279	-139.74502	1540.30188	-293.60676	-294.16240	1341.71854	-8.77140	-413.02517	1253.86908	-40.19053	-395.89856	1277.23490	30.06608	-318.68214	1073.67908	58.08918	-290.11236	982.09371	57.84531	-321.17207	982.01490	82.36475	-219.43341	1293.29750	-495.98990	-320.65128	1223.54258	-461.06031	-285.73078	1217.15349	-529.56617	-208.83725	1024.58620	-539.09017	-182.87471	948.82518	-525.46964	-206.32212	950.69649	-552.30841	-241.90876	1025.52045	-141.59013	-273.57124	1028.71902	-336.47446	-231.33533	1018.87873	-155.16600	-250.83795	1038.44345	-338.93232	
3	0.02000000	-35.85745	583.72164	-106.63099	37.47065	453.86658	-117.18475	108.69661	92.81434	-137.40278	63.08056	61.35356	-203.10676	253.97350	80.68932	-107.93563	280.33466	123.71543	-155.23217	-426.86790	584.82519	-380.73424	-474.68772	385.35743	-339.18111	-693.89908	158.36635	-319.35071	-758.43324	150.91606	-251.39957	-592.99932	37.10944	-353.11325	-544.49106	52.98799	-296.05556	74.95123	347.50838	-128.27054	-22.48802	426.55144	-74.87046	12.26430	318.75559	-80.45441	-529.93466	417.47783	-400.12456	-596.44102	324.01694	-372.99880	-109.52994	858.99149	-66.73506	-55.67960	763.39636	-77.68946	-98.88373	712.66038	-68.99813	-209.60998	809.31955	-86.38308	-153.85664	705.93149	-87.36480	-259.59590	845.57247	-414.65237	-303.99220	719.47675	-403.37484	-362.60995	885.00649	-421.00874	-409.20549	755.99567	-411.11452	-142.66048	1118.52987	-113.00251	-338.65769	1152.57717	-176.41635	-178.13614	1113.45427	-392.27022	-348.82344	1161.92103	-267.18335	-263.95977	1639.57943	-264.32358	-199.31994	1592.14738	-87.03440	-202.98191	1593.48877	-438.28635	-127.55287	1539.78518	-233.20360	-127.10015	1540.98349	-290.39693	-280.65038	1339.11381	-6.96372	-399.58475	1251.24845	-39.08715	-382.33272	1274.09599	31.31462	-305.65316	1070.19819	57.77029	-277.35432	978.62780	56.27837	-308.18264	978.28061	81.25059	-209.44056	1295.34511	-493.78096	-310.42533	1225.88766	-458.62499	-276.13588	1219.77377	-527.36455	-201.91260	1026.33628	-539.02472	-177.02854	949.97928	-526.17634	-200.44113	952.57722	-552.94776	-227.78184	1025.06935	-141.59458	-260.79694	1028.53074	-336.25055	-217.67298	1019.12638	-154.82541	-238.24305	1038.04177	-338.54413	
4	0.03000000	-24.75809	583.64673	-106.48314	47.80724	453.04671	-117.63505	113.65921	91.29110	-137.52959	66.39035	62.46764	-203.22238	258.33277	73.90693	-109.19716	285.97546	116.05301	-156.41658	-413.41627	584.57076	-381.20381	-466.11076	385.45215	-339.42019	-688.61118	163.29376	-319.71411	-752.96900	158.25552	-251.47207	-592.30943	37.83349	-352.95519	-543.35034	52.69279	-295.78849	84.09832	346.25896	-128.76553	-12.48023	426.38651	-75.34131	20.99594	318.18746	-81.10067	-519.80873	419.08726	-400.47100	-588.47095	327.36260	-373.27560	-96.11152	859.47224	-66.57923	-42.82141	763.42850	-77.47057	-86.60909	713.02568	-68.81413	-196.59354	810.42168	-86.10458	-141.63759	706.65810	-87.17651	-246.92677	845.68690	-415.25154	-290.85408	719.35353	-404.37659	-350.06681	884.88558	-420.59963	-396.14821	755.70140	-410.80445	-128.57047	1118.50289	-113.35565	-325.00376	1152.86198	-175.60964	-165.49771	1113.69894	-392.40787	-335.63009	1161.81342	-266.49055	-251.36157	1640.41223	-259.86029	-186.24282	1590.84051	-83.34946	-191.13732	1595.64439	-434.60840	-115.60386	1540.09297	-230.09898	-114.40781	1542.02057	-287.20555	-266.97777	1336.88285	-5.21380	-385.84514	1248.99141	-38.02248	-368.52633	1271.31572	32.51378	-292.49594	1067.03883	57.46034	-264.48695	975.45376	54.84771	-295.14772	974.89143	80.16956	-199.40965	1297.79659	-491.55709	-300.20364	1228.65366	-456.09987	-266.55351	1222.78097	-525.08054	-194.98778	1028.54572	-538.88585	-171.23346	951.57942	-526.82909	-194.53631	954.92035	-553.48964	-213.87209	1025.12691	-141.51985	-247.90259	1028.67349	-336.00554	-204.12012	1019.90257	-154.31869	-225.59063	1037.99710	-337.99044	
